<mxfile host="65bd71144e">
    <diagram id="5U9MrAxVu6CPuTo5KG7X" name="Page-1">
        <mxGraphModel dx="647" dy="866" grid="1" gridSize="10" guides="1" tooltips="1" connect="1" arrows="1" fold="1" page="1" pageScale="1" pageWidth="850" pageHeight="1100" math="0" shadow="0">
            <root>
                <mxCell id="0"/>
                <mxCell id="1" parent="0"/>
                <mxCell id="9" value="" style="rounded=0;whiteSpace=wrap;html=1;strokeColor=none;fillColor=#e51400;fontColor=#ffffff;gradientColor=#F2F2F2;gradientDirection=east;" vertex="1" parent="1">
                    <mxGeometry x="270" y="20" width="260" height="310" as="geometry"/>
                </mxCell>
                <mxCell id="10" value="" style="rounded=0;whiteSpace=wrap;html=1;strokeColor=none;fillColor=#60a917;fontColor=#ffffff;gradientDirection=west;gradientColor=#F2F2F2;" vertex="1" parent="1">
                    <mxGeometry x="20" y="20" width="250" height="310" as="geometry"/>
                </mxCell>
                <mxCell id="11" value="" style="endArrow=none;html=1;entryX=0;entryY=0;entryDx=0;entryDy=0;exitX=1;exitY=1;exitDx=0;exitDy=0;strokeColor=#000000;strokeWidth=3;" edge="1" parent="1" source="10" target="9">
                    <mxGeometry width="50" height="50" relative="1" as="geometry">
                        <mxPoint x="580" y="230" as="sourcePoint"/>
                        <mxPoint x="630" y="180" as="targetPoint"/>
                    </mxGeometry>
                </mxCell>
                <mxCell id="15" style="edgeStyle=none;html=1;entryX=0;entryY=0.5;entryDx=0;entryDy=0;strokeColor=#000000;strokeWidth=1;endArrow=open;endFill=0;endSize=18;startArrow=open;startFill=0;startSize=18;" edge="1" parent="1" source="3" target="12">
                    <mxGeometry relative="1" as="geometry"/>
                </mxCell>
                <mxCell id="3" value="Host" style="ellipse;whiteSpace=wrap;html=1;aspect=fixed;strokeColor=#000000;fontSize=20;" vertex="1" parent="1">
                    <mxGeometry x="50" y="160" width="60" height="60" as="geometry"/>
                </mxCell>
                <mxCell id="14" style="edgeStyle=none;html=1;entryX=0;entryY=0.75;entryDx=0;entryDy=0;strokeColor=#000000;strokeWidth=1;endArrow=open;endFill=0;endSize=18;startArrow=open;startFill=0;startSize=18;" edge="1" parent="1" source="5" target="12">
                    <mxGeometry relative="1" as="geometry"/>
                </mxCell>
                <mxCell id="5" value="Host" style="ellipse;whiteSpace=wrap;html=1;aspect=fixed;strokeColor=#000000;fontSize=20;" vertex="1" parent="1">
                    <mxGeometry x="110" y="240" width="60" height="60" as="geometry"/>
                </mxCell>
                <mxCell id="16" style="edgeStyle=none;html=1;strokeColor=#000000;strokeWidth=1;entryX=0;entryY=0.25;entryDx=0;entryDy=0;endArrow=open;endFill=0;endSize=18;startArrow=open;startFill=0;startSize=18;" edge="1" parent="1" source="7" target="12">
                    <mxGeometry relative="1" as="geometry"/>
                </mxCell>
                <mxCell id="7" value="Host" style="ellipse;whiteSpace=wrap;html=1;aspect=fixed;strokeColor=#000000;fontSize=20;" vertex="1" parent="1">
                    <mxGeometry x="110" y="70" width="60" height="60" as="geometry"/>
                </mxCell>
                <mxCell id="17" style="edgeStyle=none;html=1;exitX=1;exitY=0.5;exitDx=0;exitDy=0;endArrow=open;endFill=0;endSize=18;strokeColor=#000000;strokeWidth=1;startArrow=open;startFill=0;startSize=18;" edge="1" parent="1" source="12">
                    <mxGeometry relative="1" as="geometry">
                        <mxPoint x="500" y="190" as="targetPoint"/>
                    </mxGeometry>
                </mxCell>
                <mxCell id="12" value="Router&lt;br&gt;&lt;font style=&quot;font-size: 13px&quot;&gt;translates&lt;br&gt;addresses&lt;/font&gt;" style="rounded=0;whiteSpace=wrap;html=1;gradientDirection=west;strokeColor=#000000;verticalAlign=middle;fontSize=19;" vertex="1" parent="1">
                    <mxGeometry x="230" y="150" width="80" height="80" as="geometry"/>
                </mxCell>
                <mxCell id="18" value="10.0.0.34" style="text;html=1;strokeColor=none;fillColor=none;align=center;verticalAlign=middle;whiteSpace=wrap;rounded=0;fontColor=#000000;" vertex="1" parent="1">
                    <mxGeometry x="110" y="130" width="60" height="30" as="geometry"/>
                </mxCell>
                <mxCell id="19" value="172.16.0.4" style="text;html=1;strokeColor=none;fillColor=none;align=center;verticalAlign=middle;whiteSpace=wrap;rounded=0;fontColor=#000000;" vertex="1" parent="1">
                    <mxGeometry x="50" y="220" width="60" height="30" as="geometry"/>
                </mxCell>
                <mxCell id="20" value="192.168.4.244" style="text;html=1;strokeColor=none;fillColor=none;align=center;verticalAlign=middle;whiteSpace=wrap;rounded=0;fontColor=#000000;" vertex="1" parent="1">
                    <mxGeometry x="110" y="300" width="60" height="30" as="geometry"/>
                </mxCell>
                <mxCell id="21" value="192.168.4.244" style="text;html=1;strokeColor=none;fillColor=none;align=center;verticalAlign=middle;whiteSpace=wrap;rounded=0;fontColor=#000000;" vertex="1" parent="1">
                    <mxGeometry x="335" y="190" width="60" height="30" as="geometry"/>
                </mxCell>
                <mxCell id="23" value="External Network" style="text;html=1;strokeColor=none;fillColor=none;align=center;verticalAlign=middle;whiteSpace=wrap;rounded=0;fontColor=#000000;fontSize=20;" vertex="1" parent="1">
                    <mxGeometry x="280" y="30" width="170" height="30" as="geometry"/>
                </mxCell>
                <mxCell id="24" value="Internal Network" style="text;html=1;strokeColor=none;fillColor=none;align=center;verticalAlign=middle;whiteSpace=wrap;rounded=0;fontColor=#000000;fontSize=20;" vertex="1" parent="1">
                    <mxGeometry x="90" y="30" width="170" height="30" as="geometry"/>
                </mxCell>
            </root>
        </mxGraphModel>
    </diagram>
</mxfile>